<?xml version="1.0" encoding="utf-8"?>
<!-- Generator: Adobe Illustrator 27.0.0, SVG Export Plug-In . SVG Version: 6.00 Build 0)  -->
<svg version="1.1" id="Layer_1" xmlns="http://www.w3.org/2000/svg" xmlns:xlink="http://www.w3.org/1999/xlink" x="0px" y="0px"
	 viewBox="0 0 1660 682" style="enable-background:new 0 0 1660 682;" xml:space="preserve">
<style type="text/css">
	.st0{fill:#FFFFFF;}
	.st1{fill:none;}
</style>
<g id="Layer_2_00000183222690295640214510000011558751029130892673_">
	<g id="Layer_1-2">
		<path class="st0" d="M232.2,378.8l-69.4,1.7l46.2,31.9l-23.3,33.8L39.6,345.4l23.3-33.8l80.8,55.7L121.8,303l28.8-41.7l23.7,84
			l86.8-8.4L232.2,378.8z"/>
		<path class="st0" d="M208.9,246.9c-1.6-11.5-0.3-22.1,3.9-31.8c4.3-9.7,11.2-18,20-23.9c7.8-5.3,15.7-8.4,23.7-9.3
			c7.5-0.9,15.2,0.2,22.1,3.2L268,169.5l33.8-23.2l75.7,110.5l-33.9,23.2L333,264.3c0.2,7.6-1.6,15.2-5.2,21.9
			c-3.7,7.2-9.4,13.5-17.2,18.8c-8.6,6-18.8,9.4-29.4,9.8c-10.6,0.4-21-2.3-31.2-8c-10.2-5.7-19.2-14.2-27-25.6
			C215.2,269.9,210.5,258.4,208.9,246.9z M285.1,209.5c-15.6-3.2-30.9,6.8-34.1,22.4c-0.1,0.3-0.1,0.7-0.2,1
			c-1.4,8,0.8,16.2,6.6,24.7c5.8,8.5,12.7,13.6,20.8,15.3c15.4,3.4,30.6-6.4,34-21.8c0.1-0.5,0.2-1.1,0.3-1.6
			c1.3-8.1-0.9-16.4-6.7-24.8S293.1,211.2,285.1,209.5z"/>
		<path class="st0" d="M421.3,110.5c5.8-6.1,13.1-10.6,21.2-12.8l12.2,41.7l-10.8,3.2c-9.8,2.9-16.6,7.2-20.3,12.8
			c-3.7,5.7-4,13.8-0.9,24.4l17.5,59.7l-39.4,11.5l-37.6-128.5l39.4-11.5l6.3,21.4C411.3,124.2,415.6,116.7,421.3,110.5z"/>
		<path class="st0" d="M489.4,73.2c-4.7-3.6-7.7-9.2-8-15.2c-0.6-6,1.4-12,5.6-16.4c4.2-4.6,9.9-7.1,17.1-7.7c7-0.5,13,1.1,17.8,5
			c4.8,3.7,7.7,9.3,8,15.4c0.6,6-1.5,11.9-5.6,16.2c-4.2,4.6-9.9,7.1-16.9,7.7C500.2,78.7,494.2,77.1,489.4,73.2z M528.8,90.5
			L539.1,224l-40.9,3.1L487.9,93.6L528.8,90.5z"/>
		<path class="st0" d="M705.1,125.5c7.1,11.8,8.9,26.4,5.3,43.9L694.7,246l-40-8.2l14.6-71.2c1.8-8.8,0.9-16.1-2.6-21.9
			s-9.2-9.5-16.8-11c-7.7-1.6-14.3-0.4-19.8,3.5c-5.5,3.9-9.2,10.3-11,19.1l-14.6,71.2l-40.2-8.2L591.1,88l40.2,8.2l-3.6,17.4
			c5.4-5,12.1-8.6,19.3-10.3c8-2,16.3-2.1,24.3-0.3C686.7,106.2,697.9,113.6,705.1,125.5z"/>
		<path class="st0" d="M770.2,167.4c10.1-5.8,20.4-8.6,31-8.3c10.6,0.3,20.9,3.6,29.7,9.5c7.9,5.2,13.7,11.4,17.6,18.5
			c3.7,6.6,5.6,14.1,5.4,21.7l10.5-15.8l34.2,22.6l-73.8,111.8l-34.2-22.6l10.5-15.8c-7,3-14.7,4.2-22.2,3.4
			c-8.1-0.7-16-3.7-23.9-8.9c-8.8-5.7-15.8-13.9-20.1-23.5c-4.4-9.7-5.8-20.4-4.4-32s6-23.2,13.5-34.6
			C751.3,181.9,760.1,173.3,770.2,167.4z M833.6,224c-2.9-15.7-17.9-26.1-33.5-23.2c-0.3,0.1-0.7,0.1-1,0.2
			c-8,1.7-14.8,6.9-20.4,15.4s-7.7,16.9-6.3,25c2.7,15.6,17.5,26,33,23.3c0.5-0.1,1-0.2,1.6-0.3c8-1.8,14.8-7,20.5-15.5
			C833,240.4,835.1,232.1,833.6,224z"/>
		<path class="st0" d="M1045.3,312.8L964.6,471L928,452.4l80.7-158.2L1045.3,312.8z"/>
		<path class="st0" d="M1188.8,447.6L1143,573.5l-38.6-14l6.2-17.1c-6.2,4.2-13.3,6.9-20.8,7.6c-8.1,0.9-16.4-0.1-24.1-3
			c-9.6-3.5-17.3-8.7-23.2-15.7c-5.8-7.1-9.5-15.7-10.4-24.8c-1.1-9.6,0.3-19.9,4.3-30.9l26.8-73.5l38.3,14l-24.9,68.3
			c-3.1,8.4-3.3,15.8-0.6,22c2.7,6.2,7.7,10.7,15,13.4c7.5,2.7,14.3,2.6,20.4-0.5c6.1-3.1,10.6-8.8,13.7-17.2l24.9-68.3
			L1188.8,447.6z"/>
		<path class="st0" d="M1266.8,600.8c0.2,16.5-3.8,28.4-12,35.8c-8.2,7.4-19.8,11.2-34.6,11.4l-16.1,0.2l-0.5-34.8l9.8-0.1
			c4.5-0.1,7.7-1,9.6-2.8c1.9-1.8,2.8-4.7,2.8-8.7l-2.1-151.7l41-0.6L1266.8,600.8z M1226.1,429.8c-4.5-3.9-7.1-9.6-7.1-15.6
			c-0.2-6.1,2.2-11.9,6.6-16.1c4.5-4.3,10.3-6.5,17.5-6.6c7-0.1,12.9,1.9,17.5,6.1c4.5,4,7.1,9.8,7.1,15.9c0.2,6-2.2,11.8-6.6,15.8
			c-4.5,4.3-10.3,6.5-17.3,6.6C1236.6,436.1,1230.7,434,1226.1,429.8L1226.1,429.8z"/>
		<path class="st0" d="M1309.8,479.9c0.2-11.6,3-21.9,8.7-30.9c5.7-9,13.8-16.1,23.3-20.6c8.5-4.1,16.8-6,24.9-5.6
			c7.6,0.2,15,2.4,21.4,6.5l-8.2-17.1l37-17.9l58.2,120.6l-37,17.9l-8.2-17.1c-1,7.6-3.9,14.8-8.4,20.9c-4.7,6.6-11.4,11.9-19.9,16
			c-9.4,4.7-20,6.5-30.5,5.3c-10.5-1.2-20.4-5.4-29.7-12.6s-16.9-17-22.8-29.3C1312.5,503.5,1309.6,491.5,1309.8,479.9z
			 M1390.8,454.4c-14.9-5.5-31.5,2.1-37.1,17c-0.1,0.3-0.2,0.7-0.4,1c-2.6,7.7-1.6,16.2,2.8,25.4c4.5,9.2,10.5,15.3,18.2,18.2
			c14.7,5.6,31.2-1.7,36.9-16.5c0.2-0.5,0.4-1,0.5-1.5c2.5-7.8,1.6-16.3-2.9-25.5C1404.5,463.2,1398.4,457.2,1390.8,454.4
			L1390.8,454.4z"/>
		<path class="st0" d="M1509.5,278.3c13.5-3,27.9,0,43.3,8.9l67.6,39.3l-20.5,35.3l-62.9-36.5c-7.7-4.5-14.9-6-21.6-4.5
			s-11.9,5.7-15.8,12.4c-3.9,6.8-4.9,13.4-3,19.9c1.9,6.5,6.8,12,14.6,16.5l62.9,36.5l-20.6,35.5l-115.8-67.3l20.6-35.5l15.3,8.9
			c-3.1-6.8-4.3-14.2-3.7-21.6c0.7-8.2,3.2-16.1,7.5-23.1C1485.4,289.5,1496,281.3,1509.5,278.3z"/>
		<rect class="st1" width="1660" height="682"/>
	</g>
</g>
</svg>
